<?xml version="1.0" encoding="UTF-8"?>
<svg width="2000px" height="1000px" viewBox="0 0 2000 1000" version="1.1" xmlns="http://www.w3.org/2000/svg" xmlns:xlink="http://www.w3.org/1999/xlink">
    <title>icon_travel_bahnbonus</title>
    <g id="icon_travel_bahnbonus" stroke="none" stroke-width="1" fill="none" fill-rule="evenodd">
        <rect id="Rectangle" x="0" y="0" width="2000" height="1000"></rect>
        <g id="Travel/BahnBonus" transform="translate(600.000000, 100.000000)">
            <g id="🎨-Icon-Style" transform="translate(162.500000, 50.000000)">
                <path d="M312.5,0 C347.017797,0 375,27.9822031 375,62.5 L375,137.5 C375,144.403559 369.403559,150 362.5,150 C355.596441,150 350,144.403559 350,137.5 L350,62.5 C350,41.7893219 333.210678,25 312.5,25 L287.5,25 L287.5,25.428875 C287.5,35.2607486 283.594303,44.6899343 276.642119,51.6421189 C269.689934,58.5943034 260.260749,62.5 250.428875,62.5 L124.571125,62.5 C104.097308,62.5 87.5,45.902692 87.5,25.428875 L87.5,25 L62.5,25 C41.7893219,25 25,41.7893219 25,62.5 L25,637.5 C25,658.210678 41.7893219,675 62.5,675 L312.5,675 C333.210678,675 350,658.210678 350,637.5 L350,537.5 C350,530.596441 355.596441,525 362.5,525 C369.403559,525 375,530.596441 375,537.5 L375,637.5 C375,672.017797 347.017797,700 312.5,700 L62.5,700 C27.9822031,700 0,672.017797 0,637.5 L0,62.5 C0,27.9822031 27.9822031,0 62.5,0 L312.5,0 Z M262.5,625 C269.403559,625 275,630.596441 275,637.5 C275,644.403559 269.403559,650 262.5,650 L112.5,650 C105.596441,650 100,644.403559 100,637.5 C100,630.596441 105.596441,625 112.5,625 L262.5,625 Z M262.5,25 L112.5,25 L112.5,25.428875 C112.5,31.6193805 117.159939,36.7214989 123.163377,37.4187887 L124.571125,37.5 L250.428875,37.5 C253.630336,37.5 256.700674,36.2282244 258.964449,33.9644493 C261.228224,31.7006743 262.5,28.6303364 262.5,25.428875 L262.5,25 Z" id="Base" fill="#282D37" fill-rule="nonzero"></path>
                <path d="M187.5,240.29952 C187.5,204.354893 216.854844,175 252.799551,175 C288.744239,175 317.5,204.354893 317.5,240.29952 C317.5,276.244146 288.744239,305 252.799551,305 C216.854844,305 187.5,276.244146 187.5,240.29952 Z M277.5,430 C277.5,454.657535 297.226049,475 322.500039,475 C347.157611,475 367.5,454.657535 367.5,430 C367.5,405.342465 347.157611,385 322.500039,385 C297.226049,385 277.5,405.342465 277.5,430 Z M327.5,294.879063 C327.406051,250.55562 362.982523,215 407.739941,215 C451.34977,215 487.5,250.55562 487.5,294.713299 C487.5,339.444471 451.34977,375 407.739941,375 C364.130111,375 327.5,338.691775 327.5,294.879063 Z" id="Pulse" fill="#EC0016"></path>
            </g>
        </g>
    </g>
</svg>